# xmcd
#
# Track frame offsets:
#	150
#	11297
#	26960
#	39390
#	51097
#	69257
#	84247
#	95637
#	111257
#	123557
#	139580
#
# Disc length: 2045 seconds
#
# Revision: 0
# Processed by: cddbd v1.5PL3 Copyright (c) Steve Scherf et al.
# Submitted via: EasyCDDAExtractor 5.0.5.1
#
DISCID=8a07fb0b
DTITLE=Alan Jackson - When Somebody Loves You
DYEAR=2000
DGENRE=Country
TTITLE0=Meat and Potato Man
TTITLE1=When Somebody Loves You
TTITLE2=The Thrill Is Back
TTITLE3=www.memory
TTITLE4=Where I Come From
TTITLE5=I Still Love You
TTITLE6=Life Or Love
TTITLE7=A Love Like That
TTITLE8=It's Alright To Be A Redneck
TTITLE9=Maybe I Should Stay Here
TTITLE10=Three Minute Positive Not Too Country Up-tempo Love Song
EXTD=YEAR: 2000
EXTT0=
EXTT1=
EXTT2=
EXTT3=
EXTT4=
EXTT5=
EXTT6=
EXTT7=
EXTT8=
EXTT9=
EXTT10=
PLAYORDER=
